<svg xmlns="http://www.w3.org/2000/svg" xmlns:xlink="http://www.w3.org/1999/xlink" width="500" zoomAndPan="magnify" viewBox="0 0 375 374.999991" height="500" preserveAspectRatio="xMidYMid meet" version="1.2">
  <defs>
    <!-- Define clipping path for rounded corners -->
    <clipPath id="roundedClip">
      <rect x="0" y="0" width="375" height="374.999991" rx="75" ry="75"/>
    </clipPath>
  </defs>
  <g id="49ec7fe3c4" clip-path="url(#roundedClip)">
    <!-- White background with rounded corners -->
    <rect x="0" width="375" y="0" height="374.999991" rx="75" ry="75" style="fill:#ffffff;fill-opacity:1;stroke:none;"/>
    <!-- Dark background with rounded corners -->
    <rect x="0" width="375" y="0" height="374.999991" rx="75" ry="75" style="fill:#111111;fill-opacity:1;stroke:none;"/>
    
    <!-- Original icon paths -->
    <path style="fill:none;stroke-width:2;stroke-linecap:round;stroke-linejoin:round;stroke:#22d3ee;stroke-opacity:1;stroke-miterlimit:4;" d="M 9.00004 6.000041 C 9.00004 6.098359 8.995289 6.196313 8.985421 6.2939 C 8.975918 6.391854 8.961663 6.489076 8.942292 6.585202 C 8.923286 6.681693 8.899163 6.776722 8.870654 6.87102 C 8.842146 6.964953 8.809251 7.057424 8.771605 7.148067 C 8.733959 7.23871 8.691926 7.327526 8.645874 7.414149 C 8.599456 7.500772 8.549017 7.584836 8.494558 7.666707 C 8.439733 7.748579 8.381254 7.827161 8.319119 7.903184 C 8.256619 7.979207 8.19083 8.051941 8.121385 8.121386 C 8.051941 8.19083 7.979207 8.25662 7.903184 8.31912 C 7.82716 8.381254 7.748578 8.439734 7.666707 8.494558 C 7.584836 8.549017 7.500771 8.599456 7.414149 8.645874 C 7.327526 8.691927 7.23871 8.733959 7.148067 8.771605 C 7.057423 8.809251 6.964953 8.842146 6.87102 8.870655 C 6.776722 8.899164 6.681692 8.923286 6.585201 8.942292 C 6.489075 8.961664 6.391853 8.975918 6.2939 8.985421 C 6.196312 8.995289 6.098359 9.000041 6.00004 9.000041 C 5.901722 9.000041 5.803768 8.995289 5.705815 8.985421 C 5.608227 8.975918 5.511005 8.961664 5.414879 8.942292 C 5.318388 8.923286 5.222993 8.899164 5.129061 8.870655 C 5.035128 8.842146 4.942657 8.809251 4.852014 8.771605 C 4.761005 8.733959 4.672555 8.691927 4.585932 8.645874 C 4.499309 8.599456 4.414879 8.549017 4.333373 8.494558 C 4.251502 8.439734 4.17292 8.381254 4.096897 8.31912 C 4.020873 8.25662 3.94814 8.19083 3.878695 8.121386 C 3.809251 8.051941 3.743461 7.979207 3.680961 7.903184 C 3.618461 7.827161 3.560347 7.748579 3.505523 7.666707 C 3.451063 7.584836 3.400625 7.500772 3.354207 7.414149 C 3.307789 7.327526 3.266122 7.23871 3.228476 7.148067 C 3.19083 7.057424 3.157569 6.964953 3.129061 6.87102 C 3.100552 6.776722 3.076794 6.681693 3.057789 6.585202 C 3.038417 6.489076 3.024163 6.391854 3.014294 6.2939 C 3.004792 6.196313 3.00004 6.098359 3.00004 6.000041 C 3.00004 5.901722 3.004792 5.803769 3.014294 5.705815 C 3.024163 5.608228 3.038417 5.511006 3.057789 5.41488 C 3.076794 5.318389 3.100552 5.222994 3.129061 5.129061 C 3.157569 5.035128 3.19083 4.942658 3.228476 4.852014 C 3.266122 4.761005 3.307789 4.672555 3.354207 4.585932 C 3.400625 4.49931 3.451063 4.41488 3.505523 4.333374 C 3.560347 4.251503 3.618461 4.172921 3.680961 4.096897 C 3.743461 4.020874 3.809251 3.94814 3.878695 3.878695 C 3.94814 3.809251 4.020873 3.743462 4.096897 3.680962 C 4.17292 3.618462 4.251502 3.560348 4.333373 3.505523 C 4.414879 3.451064 4.499309 3.400625 4.585932 3.354207 C 4.672555 3.307789 4.761005 3.266122 4.852014 3.228476 C 4.942657 3.19083 5.035128 3.15757 5.129061 3.129061 C 5.222993 3.100552 5.318388 3.076795 5.414879 3.057789 C 5.511005 3.038418 5.608227 3.024163 5.705815 3.014295 C 5.803768 3.004792 5.901722 3.00004 6.00004 3.00004 C 6.098359 3.00004 6.196312 3.004792 6.2939 3.014295 C 6.391853 3.024163 6.489075 3.038418 6.585201 3.057789 C 6.681692 3.076795 6.776722 3.100552 6.87102 3.129061 C 6.964953 3.15757 7.057423 3.19083 7.148067 3.228476 C 7.23871 3.266122 7.327526 3.307789 7.414149 3.354207 C 7.500771 3.400625 7.584836 3.451064 7.666707 3.505523 C 7.748578 3.560348 7.82716 3.618462 7.903184 3.680962 C 7.979207 3.743462 8.051941 3.809251 8.121385 3.878695 C 8.19083 3.94814 8.256619 4.020874 8.319119 4.096897 C 8.381254 4.172921 8.439733 4.251503 8.494558 4.333374 C 8.549017 4.41488 8.599456 4.49931 8.645874 4.585932 C 8.691926 4.672555 8.733959 4.761005 8.771605 4.852014 C 8.809251 4.942658 8.842146 5.035128 8.870654 5.129061 C 8.899163 5.222994 8.923286 5.318389 8.942292 5.41488 C 8.961663 5.511006 8.975918 5.608228 8.985421 5.705815 C 8.995289 5.803769 9.00004 5.901722 9.00004 6.000041 Z M 9.00004 6.000041 " transform="matrix(10.687499,0,0,10.687499,59.163637,59.163632)"/>
    <path style="fill:none;stroke-width:2;stroke-linecap:round;stroke-linejoin:round;stroke:#22d3ee;stroke-opacity:1;stroke-miterlimit:4;" d="M 9.00004 18.000041 C 9.00004 18.09836 8.995289 18.196313 8.985421 18.293901 C 8.975918 18.391854 8.961663 18.489077 8.942292 18.585202 C 8.923286 18.681694 8.899163 18.776723 8.870654 18.871021 C 8.842146 18.964954 8.809251 19.057425 8.771605 19.148068 C 8.733959 19.238711 8.691926 19.327527 8.645874 19.41415 C 8.599456 19.500773 8.549017 19.584837 8.494558 19.666708 C 8.439733 19.74858 8.381254 19.827161 8.319119 19.903185 C 8.256619 19.979208 8.19083 20.051942 8.121385 20.121387 C 8.051941 20.190831 7.979207 20.256621 7.903184 20.319121 C 7.82716 20.381255 7.748578 20.439735 7.666707 20.494559 C 7.584836 20.549018 7.500771 20.599457 7.414149 20.645875 C 7.327526 20.691928 7.23871 20.73396 7.148067 20.771606 C 7.057423 20.809252 6.964953 20.842147 6.87102 20.870656 C 6.776722 20.899164 6.681692 20.923287 6.585201 20.942293 C 6.489075 20.961664 6.391853 20.975919 6.2939 20.985422 C 6.196312 20.99529 6.098359 21.000042 6.00004 21.000042 C 5.901722 21.000042 5.803768 20.99529 5.705815 20.985422 C 5.608227 20.975919 5.511005 20.961664 5.414879 20.942293 C 5.318388 20.923287 5.222993 20.899164 5.129061 20.870656 C 5.035128 20.842147 4.942657 20.809252 4.852014 20.771606 C 4.761005 20.73396 4.672555 20.691928 4.585932 20.645875 C 4.499309 20.599457 4.414879 20.549018 4.333373 20.494559 C 4.251502 20.439735 4.17292 20.381255 4.096897 20.319121 C 4.020873 20.256621 3.94814 20.190831 3.878695 20.121387 C 3.809251 20.051942 3.743461 19.979208 3.680961 19.903185 C 3.618461 19.827161 3.560347 19.74858 3.505523 19.666708 C 3.451063 19.584837 3.400625 19.500773 3.354207 19.41415 C 3.307789 19.327527 3.266122 19.238711 3.228476 19.148068 C 3.19083 19.057425 3.157569 18.964954 3.129061 18.871021 C 3.100552 18.776723 3.076794 18.681694 3.057789 18.585202 C 3.038417 18.489077 3.024163 18.391854 3.014294 18.293901 C 3.004792 18.196313 3.00004 18.09836 3.00004 18.000041 C 3.00004 17.901723 3.004792 17.80377 3.014294 17.705816 C 3.024163 17.608229 3.038417 17.511006 3.057789 17.414881 C 3.076794 17.318389 3.100552 17.222995 3.129061 17.129062 C 3.157569 17.035129 3.19083 16.942658 3.228476 16.852015 C 3.266122 16.761006 3.307789 16.672556 3.354207 16.585933 C 3.400625 16.49931 3.451063 16.414881 3.505523 16.333375 C 3.560347 16.251503 3.618461 16.172921 3.680961 16.096898 C 3.743461 16.020875 3.809251 15.948141 3.878695 15.878696 C 3.94814 15.809252 4.020873 15.743462 4.096897 15.680962 C 4.17292 15.618462 4.251502 15.560348 4.333373 15.505524 C 4.414879 15.451065 4.499309 15.400626 4.585932 15.354208 C 4.672555 15.30779 4.761005 15.266123 4.852014 15.228477 C 4.942657 15.190831 5.035128 15.157571 5.129061 15.129062 C 5.222993 15.100553 5.318388 15.076796 5.414879 15.05779 C 5.511005 15.038418 5.608227 15.024164 5.705815 15.014296 C 5.803768 15.004793 5.901722 15.000041 6.00004 15.000041 C 6.098359 15.000041 6.196312 15.004793 6.2939 15.014296 C 6.391853 15.024164 6.489075 15.038418 6.585201 15.05779 C 6.681692 15.076796 6.776722 15.100553 6.87102 15.129062 C 6.964953 15.157571 7.057423 15.190831 7.148067 15.228477 C 7.23871 15.266123 7.327526 15.30779 7.414149 15.354208 C 7.500771 15.400626 7.584836 15.451065 7.666707 15.505524 C 7.748578 15.560348 7.82716 15.618462 7.903184 15.680962 C 7.979207 15.743462 8.051941 15.809252 8.121385 15.878696 C 8.19083 15.948141 8.256619 16.020875 8.319119 16.096898 C 8.381254 16.172921 8.439733 16.251503 8.494558 16.333375 C 8.549017 16.414881 8.599456 16.49931 8.645874 16.585933 C 8.691926 16.672556 8.733959 16.761006 8.771605 16.852015 C 8.809251 16.942658 8.842146 17.035129 8.870654 17.129062 C 8.899163 17.222995 8.923286 17.318389 8.942292 17.414881 C 8.961663 17.511006 8.975918 17.608229 8.985421 17.705816 C 8.995289 17.80377 9.00004 17.901723 9.00004 18.000041 Z M 9.00004 18.000041 " transform="matrix(10.687499,0,0,10.687499,59.163637,59.163632)"/>
    <path style="fill:none;stroke-width:2;stroke-linecap:round;stroke-linejoin:round;stroke:#22d3ee;stroke-opacity:1;stroke-miterlimit:4;" d="M 20.000041 4.000041 L 8.119923 15.880158 " transform="matrix(10.687499,0,0,10.687499,59.163637,59.163632)"/>
    <path style="fill:none;stroke-width:2;stroke-linecap:round;stroke-linejoin:round;stroke:#22d3ee;stroke-opacity:1;stroke-miterlimit:4;" d="M 14.47007 14.479939 L 20.000041 20.000042 " transform="matrix(10.687499,0,0,10.687499,59.163637,59.163632)"/>
    <path style="fill:none;stroke-width:2;stroke-linecap:round;stroke-linejoin:round;stroke:#22d3ee;stroke-opacity:1;stroke-miterlimit:4;" d="M 8.119923 8.119924 L 20.000041 20.000042 " transform="matrix(10.687499,0,0,10.687499,59.163637,59.163632)"/>
  </g>
</svg>